{"title":"Guyane S01 E01 - 720p x265 HEVC - FRE (ENG SUBS) [BRSHNKV]","magnet":"magnet:?xt=urn:btih:29680e2d85cf0a8ad48277cfa9bab28df8ef558c&dn=Guyane+S01+E01+-+720p+x265+HEVC+-+FRE+%28ENG+SUBS%29+%5BBRSHNKV%5D&tr=udp%3A%2F%2Ftracker.leechers-paradise.org%3A6969&tr=udp%3A%2F%2Fzer0day.ch%3A1337&tr=udp%3A%2F%2Fopen.demonii.com%3A1337&tr=udp%3A%2F%2Ftracker.coppersurfer.tk%3A6969&tr=udp%3A%2F%2Fexodus.desync.com%3A6969","uploader":"BRSHNKV","categoryP":"video","categoryS":"hd___tv_shows","size":"527883057","seeders":"17","leechers":"7","description":"\r\n\r\n <a href=\"\nhttps://www.imdb.com/title/tt5904172/?ref_=rvi_tt\" rel=\"nofollow\" target=\"_NEW\">\nhttps://www.imdb.com/title/tt5904172/?ref_=rvi_tt</a>\r\nVideo\r\nID                                       : 1\r\nFormat                                   : HEVC\r\nFormat/Info                              : High Efficiency Video Coding\r\nFormat profile                           : Main@L3.1@Main\r\nCodec ID                                 : hvc1\r\nCodec ID/Info                            : High Efficiency Video Coding\r\nDuration                                 : 47mn 49s\r\nBit rate                                 : 1 301 Kbps\r\nWidth                                    : 1 280 pixels\r\nHeight                                   : 640 pixels\r\nDisplay aspect ratio                     : 2.000\r\nFrame rate mode                          : Constant\r\nFrame rate                               : 25.000 fps\r\nColor space                              : YUV\r\nChroma subsampling                       : 4:2:0\r\nBit depth                                : 8 bits\r\nBits/(Pixel*Frame)                       : 0.064\r\nStream size                              : 445 MiB (88%)\r\nWriting library                          : x265 2.6:[Mac OS X][clang 9.1.0][64 bit] 8bit+10bit+12bit\r\nEncoded date                             : UTC 2018-08-24 16:02:46\r\nTagged date                              : UTC 2018-08-24 16:02:46\r\nColor range                              : Limited\r\nColor primaries                          : BT.709\r\nTransfer characteristics                 : BT.709\r\nMatrix coefficients                      : BT.709\r\n\r\nAudio\r\nID                                       : 2\r\nFormat                                   : AAC\r\nFormat/Info                              : Advanced Audio Codec\r\nFormat profile                           : LC\r\nCodec ID                                 : 40\r\nDuration                                 : 47mn 49s\r\nBit rate mode                            : Variable\r\nBit rate                                 : 165 Kbps\r\nChannel(s)                               : 2 channels\r\nChannel positions                        : Front: L R\r\nSampling rate                            : 48.0 KHz\r\nCompression mode                         : Lossy\r\nStream size                              : 56.3 MiB (11%)\r\nTitle                                    : Stereo / Stereo\r\nLanguage                                 : French\r\nEncoded date                             : UTC 2018-08-24 16:02:46\r\nTagged date                              : UTC 2018-08-24 16:02:46","last_updated":"2018-08-25T12:13:49.522Z","parsed":{"xt":"urn:btih:29680e2d85cf0a8ad48277cfa9bab28df8ef558c","dn":"Guyane S01 E01 - 720p x265 HEVC - FRE (ENG SUBS) [BRSHNKV]","tr":["udp://exodus.desync.com:6969","udp://open.demonii.com:1337","udp://tracker.coppersurfer.tk:6969","udp://tracker.leechers-paradise.org:6969","udp://zer0day.ch:1337"],"infoHash":"29680e2d85cf0a8ad48277cfa9bab28df8ef558c","infoHashBuffer":{"type":"Buffer","data":[41,104,14,45,133,207,10,138,212,130,119,207,169,186,178,141,248,239,85,140]},"name":"Guyane S01 E01 - 720p x265 HEVC - FRE (ENG SUBS) [BRSHNKV]","announce":["udp://exodus.desync.com:6969","udp://open.demonii.com:1337","udp://tracker.coppersurfer.tk:6969","udp://tracker.leechers-paradise.org:6969","udp://zer0day.ch:1337"],"urlList":[]}}